# xmcd CD database file generated by OrangeCD 6.4
#
# Track frame offsets:
#	150
#	12186
#	19114
#	31391
#	42684
#	53554
#	62406
#	72894
#	83666
#	92799
#	103702
#	113982
#	125408
#	134013
#
# Disc length: 1939 seconds
#
# Revision: 0
# Processed by: cddbd v1.5.2PL0 Copyright (c) Steve Scherf et al.
# Submitted via: OrangeCD 6.4
#
DISCID=ba07910e
DTITLE=Waylon Jennings - The Balladeer
DYEAR=2002
DGENRE=
TTITLE0=Crying
TTITLE1=It´s so easy
TTITLE2=Don´t think twice it´s alright
TTITLE3=Dream Baby
TTITLE4=Money
TTITLE5=Love´s gonna live here
TTITLE6=White lightnin'
TTITLE7=Burning Memories
TTITLE8=Jole Blon
TTITLE9=Lorena
TTITLE10=When sin stops Love begins
TTITLE11=Sally was a good old girl
TTITLE12=Abilene
TTITLE13=Big Mamon
EXTD=
EXTT0=
EXTT1=
EXTT2=
EXTT3=
EXTT4=
EXTT5=
EXTT6=
EXTT7=
EXTT8=
EXTT9=
EXTT10=
EXTT11=
EXTT12=
EXTT13=
PLAYORDER=
